<?xml version="1.0" encoding="UTF-8" standalone="no"?>
<!-- Created with Inkscape (http://www.inkscape.org/) -->

<svg
   xmlns:dc="http://purl.org/dc/elements/1.1/"
   xmlns:cc="http://creativecommons.org/ns#"
   xmlns:rdf="http://www.w3.org/1999/02/22-rdf-syntax-ns#"
   xmlns:svg="http://www.w3.org/2000/svg"
   xmlns="http://www.w3.org/2000/svg"
   xmlns:sodipodi="http://sodipodi.sourceforge.net/DTD/sodipodi-0.dtd"
   xmlns:inkscape="http://www.inkscape.org/namespaces/inkscape"
   width="487.49588"
   height="67.101761"
   id="svg2"
   version="1.1"
   inkscape:version="0.47pre3 r22311"
   sodipodi:docname="planar.svg"
   inkscape:export-filename="/Users/casey/hg/planar/doc/source/_static/planar.png"
   inkscape:export-xdpi="76.559998"
   inkscape:export-ydpi="76.559998">
  <defs
     id="defs4">
    <inkscape:perspective
       sodipodi:type="inkscape:persp3d"
       inkscape:vp_x="0 : 526.18109 : 1"
       inkscape:vp_y="0 : 1000 : 0"
       inkscape:vp_z="744.09448 : 526.18109 : 1"
       inkscape:persp3d-origin="372.04724 : 350.78739 : 1"
       id="perspective10" />
  </defs>
  <sodipodi:namedview
     id="base"
     pagecolor="#ffffff"
     bordercolor="#666666"
     borderopacity="1.0"
     inkscape:pageopacity="0.0"
     inkscape:pageshadow="2"
     inkscape:zoom="1"
     inkscape:cx="265.32499"
     inkscape:cy="-122.80121"
     inkscape:document-units="px"
     inkscape:current-layer="layer1"
     showgrid="false"
     inkscape:window-width="1187"
     inkscape:window-height="866"
     inkscape:window-x="53"
     inkscape:window-y="0"
     inkscape:window-maximized="0" />
  <metadata
     id="metadata7">
    <rdf:RDF>
      <cc:Work
         rdf:about="">
        <dc:format>image/svg+xml</dc:format>
        <dc:type
           rdf:resource="http://purl.org/dc/dcmitype/StillImage" />
        <dc:title></dc:title>
      </cc:Work>
    </rdf:RDF>
  </metadata>
  <g
     inkscape:label="Layer 1"
     inkscape:groupmode="layer"
     id="layer1"
     transform="translate(-164.17485,61.601795)">
    <text
       xml:space="preserve"
       style="font-size:40px;font-style:normal;font-variant:normal;font-weight:bold;font-stretch:normal;text-align:start;line-height:125%;writing-mode:lr-tb;text-anchor:start;fill:#000000;fill-opacity:1;stroke:none;font-family:Turntablz BB;-inkscape-font-specification:Turntablz BB Bold"
       x="37"
       y="-139.616"
       id="text2822"
       sodipodi:linespacing="125%"
       transform="translate(101.75086,72.705035)"><tspan
         sodipodi:role="line"
         id="tspan2824"
         x="37"
         y="-139.616" /></text>
    <g
       style="font-size:96px;font-style:normal;font-variant:normal;font-weight:normal;font-stretch:normal;text-align:start;line-height:125%;writing-mode:lr-tb;text-anchor:start;fill:#000000;fill-opacity:1;stroke:none;font-family:TheRoots;-inkscape-font-specification:TheRoots"
       id="text2826">
      <path
         d="m 222.92685,-25.446973 c -8e-5,7.232021 -2.33608,13.568015 -7.008,19.0079997 -4.67207,5.44000423 -10.49606,8.7680009 -17.472,9.984 l 0,0.48 -30.144,0 0,-1.344 c 1.91998,-0.2559992 3.48797,-0.5439989 4.704,-0.864 -1.60003,1.4e-6 -2.97602,-0.575998 -4.128,-1.72800003 -1.15202,-1.15199567 -1.72802,-2.55999427 -1.728,-4.22399997 -2e-5,-1.8559908 0.76798,-3.3919892 2.304,-4.608 -3.52002,-4.9919827 -5.28002,-10.5599777 -5.28,-16.7039997 -2e-5,-6.143965 1.72798,-11.71196 5.184,-16.704 -1.60002,-1.151954 -2.40002,-2.751952 -2.4,-4.8 -2e-5,-1.535949 0.51198,-2.847947 1.536,-3.936 1.02398,-1.151945 2.27197,-1.791944 3.744,-1.92 -0.96003,-0.191944 -2.08002,-0.319944 -3.36,-0.384 l 0,-1.536 c 13.31196,-0.383942 20.28796,-0.575942 20.928,-0.576 8.57595,5.8e-5 15.42394,1.920056 20.544,5.76 8.38393,6.208046 12.57592,14.240038 12.576,24.096 m -0.384,0 c -8e-5,-8.831963 -3.32807,-16.159955 -9.984,-21.984 1.85593,2.304048 2.78393,5.056045 2.784,8.256 -7e-5,5.568037 -2.46407,9.920032 -7.392,13.056 -3.84006,2.496027 -8.83205,4.000025 -14.976,4.512 l -0.288,-1.344 c 9.02394,-1.215973 13.53594,-5.823968 13.536,-13.824 -6e-5,-5.311955 -1.95206,-9.439951 -5.856,-12.384 -3.52005,-2.687945 -8.03205,-4.031944 -13.536,-4.032 l 0,42.912 c -4e-5,2.0480112 0.064,3.6480096 0.192,4.7999997 0.25596,-1.3439899 0.92796,-2.4639888 2.016,-3.36 1.08796,-0.959987 2.33595,-1.4399867 3.744,-1.4399997 1.59995,1.3e-5 2.97595,0.5760126 4.128,1.7279997 1.15195,1.1520106 1.72795,2.5280093 1.728,4.128 -5e-5,1.664006 -0.57605,3.0720046 -1.728,4.22399997 -1.15205,1.08800237 -2.52805,1.63200183 -4.128,1.63200003 -0.25605,1.8e-6 -0.51205,1.8e-6 -0.768,0 1.34395,0.3840014 3.48795,0.800001 6.432,1.248 l 0,0.48 c 6.91194,-1.2159987 12.63993,-4.5119954 17.184,-9.888 4.60793,-5.3759847 6.91192,-11.6159787 6.912,-18.7199997 m -45.216,-24.48 c -0.64003,-1.023946 -1.69603,-1.791945 -3.168,-2.304 -0.44803,-0.127945 -0.89603,-0.191945 -1.344,-0.192 -1.53603,5.5e-5 -2.84802,0.544055 -3.936,1.632 -1.08802,1.088053 -1.63202,2.368051 -1.632,3.84 -2e-5,1.920048 0.79998,3.424046 2.4,4.512 2.11197,-3.007952 4.67197,-5.503949 7.68,-7.488 m 0.96,2.976 c -3e-5,-0.959949 -0.25603,-1.855948 -0.768,-2.688 -3.00803,1.984051 -5.53603,4.448048 -7.584,7.392 0.89597,0.512045 1.85597,0.768044 2.88,0.768 1.47197,4.4e-5 2.75197,-0.511955 3.84,-1.536 1.08797,-1.087953 1.63197,-2.399952 1.632,-3.936 m 0.768,3.84 c -0.064,-1.599952 -0.19203,-2.879951 -0.384,-3.84 l 0,0 c -3e-5,1.600048 -0.57603,2.976047 -1.728,4.128 -1.15203,1.152045 -2.52803,1.728044 -4.128,1.728 -1.15203,4.4e-5 -2.17603,-0.287956 -3.072,-0.864 -3.45602,4.99204 -5.18402,10.496034 -5.184,16.512 -2e-5,6.016022 1.72798,11.520017 5.184,16.5119997 0.95997,-0.7039871 2.04797,-1.0559868 3.264,-1.056 1.47197,1.32e-5 2.75197,0.4800127 3.84,1.44 1.08797,0.9600108 1.72797,2.1760096 1.92,3.648 0.19197,-1.2159907 0.28797,-3.0079889 0.288,-5.3759997 l 0,-26.976 c -3e-5,-4.479955 -3e-5,-6.431953 0,-5.856 m 19.2,38.6879997 c -5e-5,-1.4719909 -0.54405,-2.7519896 -1.632,-3.84 -1.02405,-1.0879874 -2.30405,-1.6319869 -3.84,-1.632 -1.53605,1.31e-5 -2.84804,0.5440126 -3.936,1.632 -1.02404,1.0880104 -1.53604,2.3680091 -1.536,3.84 -4e-5,1.5360061 0.51196,2.8480048 1.536,3.93599997 1.08796,1.08800266 2.39995,1.63200213 3.936,1.63200003 1.53595,2.1e-6 2.81595,-0.54399737 3.84,-1.63200003 1.08795,-1.08799517 1.63195,-2.39999387 1.632,-3.93599997 m -19.776,0.288 c -3e-5,-1.4719912 -0.54403,-2.7519899 -1.632,-3.84 -1.08803,-1.0879877 -2.36803,-1.6319872 -3.84,-1.632 -1.15203,1.28e-5 -2.17603,0.3200125 -3.072,0.96 0.89597,1.2800106 1.88797,2.4640094 2.976,3.552 l 0.192,0 0,0.192 0.384,0.384 0.192,0 0,0.192 c 1.21597,1.1520064 2.55997,2.2080053 4.032,3.168 0.51197,-0.8959947 0.76797,-1.8879937 0.768,-2.976 m -1.056,3.26399997 c -1.40803,-0.95999487 -2.75203,-2.04799387 -4.032,-3.26399997 l -0.288,0 0,0.48 -0.384,0 0,-0.48 -0.48,0 0,-0.384 0.48,0 0,-0.192 c -1.15203,-1.1519909 -2.17603,-2.3999897 -3.072,-3.744 -1.40802,1.1520105 -2.11202,2.5920091 -2.112,4.32 -2e-5,1.5360058 0.51198,2.8480045 1.536,3.93599997 1.08798,1.08800237 2.39997,1.63200183 3.936,1.63200003 1.85597,1.8e-6 3.32797,-0.76799744 4.416,-2.30400003 m 19.872,-37.24799967 -0.576,0 0,0.48 -0.288,0 0,-0.48 -0.576,0 0,-0.384 0.576,0 0,-0.576 0.288,0 0,0.576 0.576,0 0,0.384 m -1.536,0.096 -0.48,0 0,0.48 -0.384,0 0,-0.48 -0.576,0 0,-0.384 0.576,0 0,-0.576 0.384,0 0,0.576 0.48,0 0,0.384 m -22.368,-8.64 -0.576,0 0,0.48 -0.384,0 0,-0.48 -0.576,0 0,-0.384 0.576,0 0,-0.576 0.384,0 0,0.576 0.576,0 0,0.384 m 20.928,21.408 -0.576,0 0,0.576 -0.384,0 0,-0.576 -0.576,0 0,-0.384 0.576,0 0,-0.576 0.384,0 0,0.576 0.576,0 0,0.384 m -0.768,21.0239997 -0.576,0 0,0.48 -0.384,0 0,-0.48 -0.48,0 0,-0.384 0.48,0 0,-0.576 0.384,0 0,0.576 0.576,0 0,0.384"
         style=""
         id="path2887" />
    </g>
    <g
       style="font-size:96px;font-style:normal;font-variant:normal;font-weight:normal;font-stretch:normal;text-align:start;line-height:125%;writing-mode:lr-tb;text-anchor:start;fill:#000000;fill-opacity:1;stroke:none;font-family:TheRoots;-inkscape-font-specification:TheRoots"
       id="text2830">
      <path
         d="m 292.93707,-25.542973 c -8e-5,4.672024 -1.05608,9.088019 -3.168,13.248 l 0.096,0 -4.992,16.3199997 -48.768,0 0,-1.344 c 1.59997,-0.2559992 2.91197,-0.5119989 3.936,-0.768 l -0.288,0 c -1.92003,0.064001 -3.58402,-0.6079981 -4.992,-2.01600003 -1.40802,-1.40799527 -2.11202,-3.10399357 -2.112,-5.08799997 -2e-5,-3.1999884 1.50398,-5.4079857 4.512,-6.6239997 -2.24002,-4.287981 -3.36002,-8.863976 -3.36,-13.728 -2e-5,-4.927967 1.15198,-9.567962 3.456,-13.92 -3.07202,-1.151956 -4.60802,-3.359954 -4.608,-6.624 -2e-5,-1.919949 0.63998,-3.551947 1.92,-4.896 1.34398,-1.407945 2.97597,-2.143944 4.896,-2.208 -0.96003,-0.191944 -2.08002,-0.351944 -3.36,-0.48 l 0,-1.632 29.376,0 0,0.192 c 7.74394,0.576057 14.23993,3.712054 19.488,9.408 5.31192,5.632043 7.96792,12.352036 7.968,20.16 m -24.48,-20.544 c -6e-5,-1.919949 -0.67206,-3.519947 -2.016,-4.8 -1.28005,-1.343945 -2.88005,-2.015944 -4.8,-2.016 -0.38405,5.6e-5 -0.73605,0.03206 -1.056,0.096 -3.45604,0.960055 -5.37604,3.168053 -5.76,6.624 l 0,0.096 c -4e-5,1.856047 0.67196,3.456046 2.016,4.8 1.34395,1.344043 2.94395,2.016042 4.8,2.016 1.91995,4.2e-5 3.51995,-0.671957 4.8,-2.016 1.34394,-1.343954 2.01594,-2.943953 2.016,-4.8 m 24.192,20.544 c -8e-5,-7.743964 -2.62408,-14.399957 -7.872,-19.968 -5.24807,-5.631946 -11.68006,-8.703943 -19.296,-9.216 l 0,1.056 c -1.28005,0.128056 -2.40005,0.288056 -3.36,0.48 1.85595,0.128056 3.42395,0.896055 4.704,2.304 1.27994,1.344052 1.91994,2.944051 1.92,4.8 -6e-5,1.984047 -0.70406,3.680045 -2.112,5.088 -1.34405,1.344043 -3.00805,2.016042 -4.992,2.016 -1.66405,4.2e-5 -3.13605,-0.511958 -4.416,-1.536 -1.28004,-1.087955 -2.11204,-2.431954 -2.496,-4.032 -4e-5,0.832047 -4e-5,2.016045 0,3.552 l 0,28.416 c -4e-5,6.0160095 0.44796,10.4320051 1.344,13.24799967 l 10.656,0.76800003 c 3.96794,0.2560015 7.13594,0.032002 9.504,-0.67200003 1.91993,-0.95999654 3.74393,-2.14399537 5.472,-3.55199997 1.40793,-1.4719925 3.67993,-4.8319891 6.816,-10.0799997 l 0.96,0.48 c 2.11192,-4.159981 3.16792,-8.543976 3.168,-13.152 m -46.08,-20.544 c -3e-5,-1.08795 -0.22403,-2.079949 -0.672,-2.976 -3.45603,2.560049 -6.20803,5.696046 -8.256,9.408 0.70397,0.256042 1.40797,0.384042 2.112,0.384 1.91997,4.2e-5 3.51997,-0.671957 4.8,-2.016 1.34397,-1.343954 2.01597,-2.943953 2.016,-4.8 m -0.768,-3.264 c -1.34403,-2.367945 -3.36003,-3.551944 -6.048,-3.552 -1.85603,5.6e-5 -3.45602,0.672055 -4.8,2.016 -1.34402,1.280053 -2.01602,2.880051 -2.016,4.8 -2e-5,3.136046 1.47198,5.248044 4.416,6.336 2.11197,-3.775954 4.92797,-6.97595 8.448,-9.6 m 1.152,39.072 0,-30.72 c -3e-5,-1.983954 -0.032,-3.455953 -0.096,-4.416 -0.19203,1.792047 -0.96003,3.328045 -2.304,4.608 -1.34403,1.216043 -2.94403,1.824042 -4.8,1.824 -0.76803,4.2e-5 -1.50403,-0.127958 -2.208,-0.384 -2.30402,4.288038 -3.45602,8.896033 -3.456,13.824 -2e-5,4.800024 1.11998,9.344019 3.36,13.632 0.76797,-0.255985 1.53597,-0.383985 2.304,-0.384 1.85597,1.5e-5 3.45597,0.640015 4.8,1.92 1.34397,1.2160121 2.11197,2.7200106 2.304,4.5119997 0.064,-0.9599899 0.096,-2.4319885 0.096,-4.4159997 m -0.384,5.0879997 c -3e-5,-1.8559897 -0.67203,-3.4559881 -2.016,-4.8 -1.28003,-1.3439857 -2.88003,-2.0159847 -4.8,-2.0159997 -0.70403,1.5e-5 -1.40803,0.128015 -2.112,0.384 2.04797,3.7760108 4.79997,6.9440076 8.256,9.5039997 0.44797,-0.9599937 0.67197,-1.9839927 0.672,-3.072 m -0.864,3.36 c -3.52003,-2.6239923 -6.30403,-5.8559891 -8.352,-9.6959997 -2.94402,1.088013 -4.41602,3.2000113 -4.416,6.3359997 -2e-5,1.9200065 0.67198,3.5520049 2.016,4.89599997 1.34398,1.28000227 2.94397,1.92000163 4.8,1.92000003 2.68797,1.6e-6 4.67197,-1.15199724 5.952,-3.456 m 16.704,-44.2559997 -0.576,0 0,0.576 -0.288,0 0,-0.576 -0.576,0 0,-0.288 0.576,0 0,-0.576 0.288,0 0,0.576 0.576,0 0,0.288 m 1.824,20.64 -0.672,0 0,0.576 -0.288,0 0,-0.576 -0.576,0 0,-0.288 0.576,0 0,-0.576 0.288,0 0,0.576 0.672,0 0,0.288 m -23.712,-20.64 -0.576,0 0,0.576 -0.288,0 0,-0.576 -0.576,0 0,-0.288 0.576,0 0,-0.576 0.288,0 0,0.576 0.576,0 0,0.288 m -0.096,40.8959997 -0.576,0 0,0.576 -0.288,0 0,-0.576 -0.576,0 0,-0.288 0.576,0 0,-0.576 0.288,0 0,0.576 0.576,0 0,0.288"
         style=""
         id="path2884" />
    </g>
    <g
       style="font-size:106.02071381px;font-style:normal;font-variant:normal;font-weight:normal;font-stretch:normal;text-align:start;line-height:125%;writing-mode:lr-tb;text-anchor:start;fill:#000000;fill-opacity:1;stroke:none;font-family:TheRoots;-inkscape-font-specification:TheRoots"
       id="text2834">
      <path
         d="m 371.25469,-8.3793968 -0.63612,0 0,0.5301036 -0.31806,0 0,-0.5301036 -0.53011,0 0,-0.3180621 0.53011,0 0,-0.6361243 0.31806,0 0,0.6361243 0.63612,0 0,0.3180621 m 4.98298,9.8599264 c -1.69643,0.9895274 -3.56946,1.4842902 -5.6191,1.48429 -0.49485,2e-7 -0.98962,-0.03534 -1.48429,-0.1060207 l 0,1.1662279 -23.85466,0 0,-1.1662279 c -2.0498,0.4947632 -4.17021,0.7421446 -6.36125,0.742145 -3.18067,-4e-7 -6.21993,-0.4947633 -9.11778,-1.48429 -0.28277,0.070681 -0.56549,0.1060217 -0.84816,0.1060207 0.84811,0.070681 2.04968,0.2473824 3.6047,0.5301036 l 0,1.2722486 -22.26435,0 0,-1.2722486 0.63613,-0.2120414 c -0.56548,0.070681 -1.13092,0.1060212 -1.69634,0.1060207 -2.19112,5e-7 -4.24085,-0.5654427 -6.1492,-1.69633144 l 0.21204,-0.21204143 c 1.83767,1.06020847 3.81672,1.59031157 5.93716,1.59031067 4.73556,9e-7 8.09288,-2.12041127 10.07197,-6.3612428 -4.66494,-4.3114975 -7.59818,-9.5418475 -8.79972,-15.6910655 -0.42411,-0.07066 -0.84819,-0.105998 -1.27225,-0.106021 -2.2618,2.3e-5 -4.41755,0.706827 -6.46726,2.120414 l -0.10602,-0.318062 c 2.04971,-1.413587 4.2408,-2.120391 6.57328,-2.120414 0.42406,2.3e-5 0.8128,0.03536 1.16623,0.106021 -0.28275,-1.766987 -0.42411,-3.533997 -0.42408,-5.301036 -3e-5,-6.502569 1.90834,-12.298362 5.72512,-17.387397 3.88739,-5.088943 8.87035,-8.552283 14.94892,-10.39003 -0.42413,-0.777428 -0.63617,-1.625593 -0.63613,-2.544497 -4e-5,-1.625591 0.5654,-3.003858 1.69634,-4.134808 1.20151,-1.201504 2.61512,-1.802287 4.24082,-1.802352 1.6256,6.5e-5 3.00387,0.600848 4.13481,1.802352 1.13083,1.13095 1.69627,2.509217 1.69633,4.134808 -6e-5,0.494822 -0.0354,0.989584 -0.10602,1.48429 7.3507,0.706861 13.53524,3.816799 18.55363,9.329823 5.08891,5.513119 7.6334,12.015717 7.63349,19.507811 -9e-5,2.04976 -0.21213,4.064152 -0.63613,6.043181 1.1308,-0.35338 2.26169,-0.530081 3.39267,-0.530104 1.76692,2.3e-5 3.49859,0.388765 5.19501,1.166228 l -0.21204,0.318062 c -1.55506,-0.777463 -3.21605,-1.166205 -4.98297,-1.166228 -1.20166,2.3e-5 -2.36789,0.176724 -3.49869,0.530104 -1.13097,5.159692 -3.5341,9.6478973 -7.2094,13.4646305 0.70672,2.4031425 2.04965,4.3821938 4.02878,5.93715999 1.97897,1.48429131 4.2054,2.22643551 6.67931,2.22643501 1.97896,5e-7 3.81665,-0.4947623 5.51307,-1.48429 l 0.10603,0.3180621 m -66.47499,-10.0719678 -0.63613,0 0,0.5301036 -0.31806,0 0,-0.5301036 -0.5301,0 0,-0.3180621 0.5301,0 0,-0.5301036 0.31806,0 0,0.5301036 0.63613,0 0,0.3180621 m 31.70019,-47.0731968 c -6e-5,-1.55491 -0.53016,-2.862498 -1.59031,-3.922767 -1.06026,-1.130823 -2.36785,-1.696266 -3.92277,-1.696331 -1.55502,6.5e-5 -2.89795,0.565508 -4.02878,1.696331 -1.06026,1.060269 -1.59036,2.367857 -1.59031,3.922767 -5e-5,0.848224 0.21199,1.661048 0.63612,2.438476 2.54445,-0.706747 5.19496,-1.060149 7.95155,-1.060207 0.77743,5.8e-5 1.55492,0.0354 2.33246,0.106021 0.1413,-0.494706 0.21198,-0.989468 0.21204,-1.48429 m -0.21204,1.802352 c -0.77754,-0.07062 -1.55503,-0.105964 -2.33246,-0.106021 -2.68591,5.7e-5 -5.30108,0.353459 -7.84553,1.060207 1.06016,1.837747 2.68581,2.756592 4.87695,2.756539 0.21199,5.3e-5 0.45937,5.3e-5 0.74215,0 1.69627,-0.848112 3.14522,-1.978998 4.34685,-3.392663 0.0706,-0.141304 0.1413,-0.247325 0.21204,-0.318062 m 26.29314,28.519572 c -9e-5,-7.421414 -2.50924,-13.853331 -7.52747,-19.29577 -5.01839,-5.513024 -11.16759,-8.587621 -18.44761,-9.223802 l -0.10602,0.212041 18.02352,47.4972802 c -0.21212,-0.7067947 -0.31814,-1.4489389 -0.31806,-2.226435 -8e-5,-2.4738022 0.70673,-4.7002352 2.12041,-6.6793052 1.48421,-1.979033 3.35724,-3.357301 5.6191,-4.134808 0.424,-2.049709 0.63604,-4.099441 0.63613,-6.149201 m -0.74215,6.467264 c -2.1205,0.848186 -3.85217,2.226454 -5.19501,4.134807 -1.34301,1.908389 -2.01448,4.028801 -2.0144,6.3612432 -8e-5,0.8481765 0.0706,1.6963413 0.21204,2.5444972 3.53395,-3.7460525 5.8664,-8.0928974 6.99737,-13.0405474 m -21.5222,-3.922767 -8.26962,-20.674039 -7.42145,20.674039 15.69107,0 m -9.01176,-27.035282 c -0.14142,5.3e-5 -0.24744,5.3e-5 -0.31807,0 -2.3325,5.3e-5 -4.06417,-0.989473 -5.19501,-2.96858 -6.00789,1.767066 -10.92017,5.195066 -14.73688,10.284009 -3.81678,5.018355 -5.72515,10.743468 -5.72512,17.175356 -3e-5,1.767039 0.17667,3.534049 0.5301,5.301036 2.75651,0.353425 5.08896,1.625672 6.99737,3.816745 1.90834,2.120432 2.86252,4.629586 2.86256,7.5274711 -4e-5,0.4947747 -0.0354,0.9895375 -0.10602,1.48429 l 14.10076,-36.7891881 c 0.21198,-0.706756 0.56539,-1.696282 1.0602,-2.96858 0.21199,-1.060156 0.10597,-1.943661 -0.31806,-2.650517 0.35335,-0.141308 0.63607,-0.247329 0.84817,-0.318063 l 0,0.106021 m 15.26698,47.4972799 c -7e-5,-0.5654377 -0.0354,-1.0602005 -0.10602,-1.48429 -0.6362,-2.5444876 -2.26185,-3.8167348 -4.87695,-3.8167457 -1.41368,1.09e-5 -2.61525,0.4947737 -3.60471,1.48429 -0.98959,0.989535 -1.48435,2.1557617 -1.48429,3.4986836 -6e-5,2.96858284 1.44889,4.6649126 4.34685,5.0889943 1.34286,-0.3534013 2.68579,-0.7774838 4.02879,-1.2722486 0.28265,-0.21203922 0.53003,-0.45942063 0.74214,-0.74214501 0.63606,-0.84816211 0.95412,-1.76700739 0.95419,-2.75653859 m -0.42408,-3.1806214 c -0.0708,-0.070672 -1.62572,-4.5588775 -4.66492,-13.4646305 l -18.12954,0 c -1.20161,2.968599 -2.72124,7.492145 -4.55889,13.5706512 0.98948,-2.1204035 2.61513,-3.1806096 4.87695,-3.1806214 1.55493,1.18e-5 2.82717,0.5301148 3.81675,1.5903107 1.06016,1.0602163 1.59026,2.3324636 1.59031,3.8167457 -5e-5,2.61518137 -1.23696,4.3115111 -3.71072,5.0889943 2.75648,0.9188465 5.61904,1.3782692 8.58767,1.3782693 2.04968,-1e-7 4.09941,-0.2120414 6.14921,-0.6361243 -2.61524,-0.7774839 -3.92283,-2.54449408 -3.92277,-5.3010357 -6e-5,-1.4842827 0.4947,-2.7211898 1.48429,-3.710725 1.06014,-1.0601965 2.36773,-1.5902996 3.92277,-1.5903107 1.97898,1.11e-5 3.49861,0.8128358 4.55889,2.4384764 m -17.3874,2.3324557 c -5e-5,-1.4136017 -0.49482,-2.6151686 -1.48429,-3.6047043 -0.98958,-0.9895157 -2.19114,-1.4842785 -3.60471,-1.4842899 -1.34297,1.14e-5 -2.5092,0.4947742 -3.49868,1.4842899 -0.98957,0.9895357 -1.48433,2.1911026 -1.48429,3.6047043 -4e-5,0.8481712 0.17666,1.6256557 0.5301,2.33245572 1.76697,1.06021011 3.64,1.94371518 5.6191,2.65051788 2.61513,-0.6361223 3.92272,-2.29711182 3.92277,-4.9829736 m -13.35861,-5.5130771 c -4e-5,-2.7565241 -0.91889,-5.1596581 -2.75654,-7.2094081 -1.83773,-2.120394 -4.0995,-3.392641 -6.78533,-3.816746 1.20154,6.007857 4.0641,11.1321866 8.58768,15.3730034 0.63609,-1.4136006 0.95415,-2.8625489 0.95419,-4.3468493 m 8.6937,10.6020714 c -1.55502,-0.565442 -3.03931,-1.27224604 -4.45287,-2.12041429 0.98948,1.41361149 2.33241,2.12041559 4.02878,2.12041429 0.212,1.3e-6 0.35336,1.3e-6 0.42409,0 m -5.40706,-3.0746007 -0.10602,-0.2120414 0.10602,0.2120414 0,0 m 13.04055,-54.3886258 -0.63613,0 0,0.530103 -0.31806,0 0,-0.530103 -0.5301,0 0,-0.318063 0.5301,0 0,-0.636124 0.31806,0 0,0.636124 0.63613,0 0,0.318063 m 10.39003,53.1163772 -0.5301,0 0,0.5301036 -0.31807,0 0,-0.5301036 -0.5301,0 0,-0.3180621 0.5301,0 0,-0.5301036 0.31807,0 0,0.5301036 0.5301,0 0,0.3180621 m -17.9175,-0.6361243 -0.53011,0 0,0.5301036 -0.31806,0 0,-0.5301036 -0.5301,0 0,-0.3180621 0.5301,0 0,-0.6361243 0.31806,0 0,0.6361243 0.53011,0 0,0.3180621"
         style=""
         id="path2881" />
    </g>
    <g
       style="font-size:98.38663483px;font-style:normal;font-variant:normal;font-weight:normal;font-stretch:normal;text-align:start;line-height:125%;writing-mode:lr-tb;text-anchor:start;fill:#000000;fill-opacity:1;stroke:none;font-family:TheRoots;-inkscape-font-specification:TheRoots"
       id="text2838">
      <path
         d="m 468.40791,-46.448174 c -1e-4,2.098962 -0.75439,3.902715 -2.26289,5.411265 -1.4431,1.443046 -3.21406,2.164547 -5.31288,2.164506 -2.099,4.1e-5 -3.90276,-0.72146 -5.41127,-2.164506 -1.44308,-1.50855 -2.16458,-3.312303 -2.1645,-5.411265 -8e-5,-0.262315 -8e-5,-0.491884 0,-0.688707 -0.19686,0.787142 -0.36083,1.771008 -0.49194,2.951599 -0.85276,6.952696 -0.91835,23.416043 -0.19677,49.390091 l -1.37741,0.29516 c -2.62372,-3.148372 -5.50973,-6.49351421 -8.65803,-10.0354368 -5.77208,5.5752443 -12.62634,8.3628629 -20.5628,8.362864 -0.91833,-1.1e-6 -1.80381,-0.032797 -2.65644,-0.098387 l -25.7773,0 0,-1.3774129 c 0.72148,-0.065591 1.34459,-0.1311816 1.86934,-0.1967732 -0.1312,6e-7 -0.29518,6e-7 -0.49193,0 -2.42689,6e-7 -4.5258,-0.8854783 -6.29674,-2.65643917 -1.77098,-1.77095443 -2.65646,-3.86986723 -2.65644,-6.29674463 -2e-5,-2.3612673 0.78708,-4.3945886 2.36128,-6.0999716 1.57417,-1.705351 3.5091,-2.656421 5.80481,-2.853212 -1.11507,-3.213942 -1.67259,-6.526289 -1.67257,-9.93705 -2e-5,-3.08275 0.45911,-6.099937 1.37741,-9.051571 -2.03334,-0.459099 -3.73871,-1.47576 -5.11611,-3.049985 -1.31183,-1.639735 -1.96774,-3.541875 -1.96773,-5.706425 -1e-5,-2.426822 0.88547,-4.525735 2.65644,-6.296745 1.77094,-1.770905 3.90265,-2.656384 6.39513,-2.656439 0.5903,5.5e-5 1.21341,0.06565 1.86935,0.196773 -1.44303,-0.524673 -3.21399,-1.016606 -5.31288,-1.475799 l 0.0984,-1.574186 14.36444,0 2.65644,2.853212 c 3.93543,-1.836493 8.10046,-2.754768 12.49511,-2.754826 4.85368,5.8e-5 9.44505,1.147901 13.77412,3.443532 1.37735,-0.787037 2.85315,-1.180583 4.4274,-1.180639 0.19671,5.6e-5 0.36069,5.6e-5 0.49194,0 -1.04953,-0.262309 -2.32855,-0.524673 -3.83708,-0.787093 l 0,-1.574186 23.71118,0 0,1.279026 0.29516,0 c 2.03323,-0.06553 3.80419,0.655967 5.31288,2.164506 1.5085,1.508648 2.26279,3.312401 2.26289,5.411265 m -0.39355,0 c -9e-5,-2.033273 -0.7216,-3.738639 -2.1645,-5.116105 -1.37751,-1.442948 -3.05008,-2.16445 -5.01772,-2.164506 -2.03341,5.6e-5 -3.77157,0.721558 -5.21449,2.164506 -1.3775,1.377466 -2.0662,3.082832 -2.06612,5.116105 -8e-5,1.96778 0.68862,3.673146 2.06612,5.116105 1.44292,1.377455 3.18108,2.066161 5.21449,2.066119 1.96764,4.2e-5 3.64021,-0.688664 5.01772,-2.066119 1.4429,-1.442959 2.16441,-3.148325 2.1645,-5.116105 m -18.98862,9.149957 0,-4.230625 c -8e-5,-0.393502 -8e-5,-0.787049 0,-1.18064 -0.13126,1.115093 -0.49201,2.164549 -1.08225,3.148372 0.39347,0.721544 0.75422,1.475841 1.08225,2.262893 m -0.29516,-6.690291 c -7e-5,-2.361231 -0.85276,-4.361757 -2.55805,-6.001585 -1.63985,-1.705314 -3.64038,-2.557997 -6.00159,-2.558053 -2.36134,5.6e-5 -4.39466,0.852739 -6.09997,2.558053 -1.70543,1.639828 -2.55811,3.640354 -2.55805,6.001585 -6e-5,2.361323 0.85262,4.394645 2.55805,6.099971 1.70531,1.639816 3.73863,2.459704 6.09997,2.459666 2.36121,3.8e-5 4.36174,-0.81985 6.00159,-2.459666 1.70529,-1.705326 2.55798,-3.738648 2.55805,-6.099971 m 0.49193,28.63051 -0.0984,-20.956353 c -0.39362,-0.983826 -0.85276,-1.967692 -1.37742,-2.951599 -1.77103,2.820456 -4.29628,4.230663 -7.57577,4.230625 -2.49252,3.8e-5 -4.62423,-0.852645 -6.39513,-2.558052 -1.70543,-1.770917 -2.55811,-3.902626 -2.55805,-6.395131 -6e-5,-3.279505 1.37735,-5.804759 4.13224,-7.575771 -4.19789,-2.16445 -8.65808,-3.246702 -13.38058,-3.246759 -4.32906,5.7e-5 -8.3957,0.885536 -12.19995,2.656439 l 37.78047,40.33852 c 0.65584,-1.115033 1.21336,-2.295671 1.67257,-3.541919 m 0,5.4112653 0,-4.4273983 c -0.39362,0.983882 -0.85276,1.934952 -1.37741,2.853212 l 1.37741,1.5741863 m -6.98545,5.2144916 C 438.36712,-9.0612412 431.80802,-16.079481 422.55974,-25.786981 l 0,0.29516 -0.59032,0 0,0.59032 -0.39355,0 0,-0.59032 -0.49193,0 0,-0.29516 0.49193,0 0,-0.59032 0.39355,0 0,0.59032 0.59032,0 c -6.42797,-6.821438 -11.41289,-12.167106 -14.95477,-16.037021 l 0,27.646644 c 0.0656,2.820431 0.22953,5.0505258 0.49193,6.6902912 -3e-5,-2.4924487 0.88544,-4.5913612 2.65644,-6.2967442 1.77092,-1.770942 3.86983,-2.65642 6.29674,-2.65644 2.49242,2e-5 4.59133,0.885498 6.29675,2.65644 1.77091,1.770974 2.65639,3.8698865 2.65644,6.2967442 -5e-5,2.4924691 -0.88553,4.6241774 -2.65644,6.3951312 -1.70542,1.70537049 -3.80433,2.5580538 -6.29675,2.5580525 -0.45918,1.3e-6 -0.91831,-0.032794 -1.37741,-0.098387 1.11501,0.3935475 2.42683,0.7215026 3.93547,0.9838663 l 0,1.082253 c 0.78704,-7e-7 1.57413,-7e-7 2.36128,0 7.87087,-7e-7 14.62675,-2.72202818 20.26764,-8.1660907 M 404.35821,-43.496575 c -3e-5,-1.574139 -0.42637,-3.049937 -1.27903,-4.427399 -4.13226,3.476375 -7.05106,7.772587 -8.75641,12.888649 0.45912,0.13122 0.95105,0.196811 1.4758,0.196774 2.36126,3.7e-5 4.36178,-0.852646 6.00159,-2.558053 1.70533,-1.705326 2.55802,-3.738648 2.55805,-6.099971 m -1.4758,-4.722559 c -1.7054,-2.557999 -4.06667,-3.837024 -7.08384,-3.837078 -2.42689,5.4e-5 -4.49301,0.852738 -6.19836,2.558052 -1.63979,1.639828 -2.45968,3.640354 -2.45966,6.001585 -2e-5,2.033368 0.6231,3.837121 1.86934,5.411265 1.31181,1.574225 2.95158,2.590886 4.91934,3.049985 1.77093,-5.247244 4.75532,-9.641842 8.95318,-13.183809 m 22.8257,40.7320672 c -5e-5,-2.3612667 -0.85274,-4.3617932 -2.55805,-6.0015852 -1.70542,-1.70535 -3.73874,-2.558033 -6.09998,-2.558052 -2.36132,1.9e-5 -4.39464,0.852702 -6.09997,2.558052 -1.63981,1.639792 -2.4597,3.6403185 -2.45966,6.0015852 -4e-5,2.3612871 0.81985,4.3946088 2.45966,6.0999713 1.70533,1.70537078 3.73865,2.5580541 6.09997,2.5580525 2.36124,1.6e-6 4.39456,-0.85268172 6.09998,-2.5580525 1.70531,-1.7053625 2.558,-3.7386842 2.55805,-6.0999713 m -20.95636,-18.8902342 0,-12.987036 c -3e-5,-1.180596 -0.0328,-2.230052 -0.0984,-3.148372 -0.19681,2.295731 -1.14788,4.197871 -2.85321,5.706425 -1.7054,1.508633 -3.70593,2.26293 -6.00159,2.262893 -0.52475,3.7e-5 -1.04948,-0.03276 -1.57418,-0.09839 -0.98389,2.886042 -1.47582,5.870434 -1.4758,8.953184 -2e-5,3.410761 0.5903,6.723108 1.77095,9.93705 0.13117,-0.06557 0.26235,-0.09837 0.39355,-0.09839 2.49244,1.9e-5 4.59135,0.885498 6.29675,2.656439 1.77093,1.770974 2.6564,3.9026822 2.65644,6.3951316 l 0,0 c 0.59028,-2.8204045 0.88544,-9.3467116 0.88547,-19.5789406 m -1.18063,19.5789406 c -4e-5,-2.4268584 -0.85272,-4.4601806 -2.55806,-6.0999716 -1.70539,-1.705351 -3.73871,-2.558034 -6.09997,-2.558052 -2.3613,1.8e-5 -4.39462,0.852701 -6.09997,2.558052 -1.63979,1.639791 -2.45968,3.6731132 -2.45967,6.0999716 -1e-5,2.3612864 0.81988,4.3946082 2.45967,6.09997136 1.70535,1.63977905 3.73867,2.45966684 6.09997,2.45966584 2.36126,10e-7 4.39458,-0.81988679 6.09997,-2.45966584 1.70534,-1.70536316 2.55802,-3.73868496 2.55806,-6.09997136 m 57.85134,-39.4530406 -0.59032,0 0,0.491933 -0.39355,0 0,-0.491933 -0.49193,0 0,-0.393547 0.49193,0 0,-0.590319 0.39355,0 0,0.590319 0.59032,0 0,0.393547 m -20.6612,2.361279 -0.59032,0 0,0.491933 -0.39354,0 0,-0.491933 -0.49194,0 0,-0.393546 0.49194,0 0,-0.59032 0.39354,0 0,0.59032 0.59032,0 0,0.393546 m -44.37237,0.688707 -0.59032,0 0,0.491933 -0.39355,0 0,-0.491933 -0.49193,0 0,-0.393547 0.49193,0 0,-0.59032 0.39355,0 0,0.59032 0.59032,0 0,0.393547 m 21.44829,35.8127348 -0.49194,0 0,0.4919332 -0.39354,0 0,-0.4919332 -0.59032,0 0,-0.3935466 0.59032,0 0,-0.5903198 0.39354,0 0,0.5903198 0.49194,0 0,0.3935466 m -22.33377,0.6887064 -0.59032,0 0,0.5903198 -0.29516,0 0,-0.5903198 -0.59032,0 0,-0.3935465 0.59032,0 0,-0.4919332 0.29516,0 0,0.4919332 0.59032,0 0,0.3935465"
         style=""
         id="path2878" />
    </g>
    <g
       style="font-size:106.02071381px;font-style:normal;font-variant:normal;font-weight:normal;font-stretch:normal;text-align:start;line-height:125%;writing-mode:lr-tb;text-anchor:start;fill:#000000;fill-opacity:1;stroke:none;font-family:TheRoots;-inkscape-font-specification:TheRoots"
       id="text2842">
      <path
         d="m 546.72555,-8.3793968 -0.63613,0 0,0.5301036 -0.31806,0 0,-0.5301036 -0.5301,0 0,-0.3180621 0.5301,0 0,-0.6361243 0.31806,0 0,0.6361243 0.63613,0 0,0.3180621 m 4.98297,9.8599264 c -1.69642,0.9895274 -3.56945,1.4842902 -5.6191,1.48429 -0.49485,2e-7 -0.98961,-0.03534 -1.48429,-0.1060207 l 0,1.1662279 -23.85466,0 0,-1.1662279 c -2.04979,0.4947632 -4.17021,0.7421446 -6.36124,0.742145 -3.18068,-4e-7 -6.21993,-0.4947633 -9.11778,-1.48429 -0.28277,0.070681 -0.56549,0.1060217 -0.84817,0.1060207 0.84812,0.070681 2.04969,0.2473824 3.60471,0.5301036 l 0,1.2722486 -22.26435,0 0,-1.2722486 0.63612,-0.2120414 c -0.56547,0.070681 -1.13092,0.1060212 -1.69633,0.1060207 -2.19112,5e-7 -4.24085,-0.5654427 -6.1492,-1.69633144 l 0.21204,-0.21204143 c 1.83767,1.06020847 3.81672,1.59031157 5.93716,1.59031067 4.73556,9e-7 8.09288,-2.12041127 10.07197,-6.3612428 -4.66495,-4.3114975 -7.59818,-9.5418475 -8.79972,-15.6910655 -0.42411,-0.07066 -0.8482,-0.105998 -1.27225,-0.106021 -2.2618,2.3e-5 -4.41755,0.706827 -6.46726,2.120414 l -0.10602,-0.318062 c 2.04971,-1.413587 4.2408,-2.120391 6.57328,-2.120414 0.42405,2.3e-5 0.8128,0.03536 1.16623,0.106021 -0.28275,-1.766987 -0.42411,-3.533997 -0.42409,-5.301036 -2e-5,-6.502569 1.90835,-12.298362 5.72512,-17.387397 3.88739,-5.088943 8.87036,-8.552283 14.94892,-10.39003 -0.42413,-0.777428 -0.63617,-1.625593 -0.63612,-2.544497 -5e-5,-1.625591 0.56539,-3.003858 1.69633,-4.134808 1.20152,-1.201504 2.61513,-1.802287 4.24083,-1.802352 1.62559,6.5e-5 3.00386,0.600848 4.13481,1.802352 1.13083,1.13095 1.69627,2.509217 1.69633,4.134808 -6e-5,0.494822 -0.0354,0.989584 -0.10602,1.48429 7.3507,0.706861 13.53524,3.816799 18.55362,9.329823 5.08891,5.513119 7.63341,12.015717 7.63349,19.507811 -8e-5,2.04976 -0.21212,4.064152 -0.63612,6.043181 1.1308,-0.35338 2.26169,-0.530081 3.39266,-0.530104 1.76692,2.3e-5 3.49859,0.388765 5.19502,1.166228 l -0.21204,0.318062 c -1.55507,-0.777463 -3.21606,-1.166205 -4.98298,-1.166228 -1.20165,2.3e-5 -2.36788,0.176724 -3.49868,0.530104 -1.13097,5.159692 -3.53411,9.6478973 -7.20941,13.4646305 0.70673,2.4031425 2.04965,4.3821938 4.02879,5.93715999 1.97897,1.48429131 4.2054,2.22643551 6.6793,2.22643501 1.97896,5e-7 3.81666,-0.4947623 5.51308,-1.48429 l 0.10602,0.3180621 m -66.47499,-10.0719678 -0.63612,0 0,0.5301036 -0.31806,0 0,-0.5301036 -0.53011,0 0,-0.3180621 0.53011,0 0,-0.5301036 0.31806,0 0,0.5301036 0.63612,0 0,0.3180621 m 31.7002,-47.0731968 c -6e-5,-1.55491 -0.53017,-2.862498 -1.59031,-3.922767 -1.06027,-1.130823 -2.36786,-1.696266 -3.92277,-1.696331 -1.55502,6.5e-5 -2.89795,0.565508 -4.02879,1.696331 -1.06025,1.060269 -1.59036,2.367857 -1.59031,3.922767 -5e-5,0.848224 0.21199,1.661048 0.63613,2.438476 2.54444,-0.706747 5.19496,-1.060149 7.95155,-1.060207 0.77743,5.8e-5 1.55491,0.0354 2.33246,0.106021 0.1413,-0.494706 0.21198,-0.989468 0.21204,-1.48429 m -0.21204,1.802352 c -0.77755,-0.07062 -1.55503,-0.105964 -2.33246,-0.106021 -2.68591,5.7e-5 -5.30109,0.353459 -7.84553,1.060207 1.06015,1.837747 2.6858,2.756592 4.87695,2.756539 0.21199,5.3e-5 0.45937,5.3e-5 0.74214,0 1.69628,-0.848112 3.14523,-1.978998 4.34685,-3.392663 0.0706,-0.141304 0.1413,-0.247325 0.21205,-0.318062 m 26.29313,28.519572 c -8e-5,-7.421414 -2.50924,-13.853331 -7.52747,-19.29577 -5.01839,-5.513024 -11.16758,-8.587621 -18.4476,-9.223802 l -0.10602,0.212041 18.02352,47.4972802 c -0.21212,-0.7067947 -0.31814,-1.4489389 -0.31806,-2.226435 -8e-5,-2.4738022 0.70672,-4.7002352 2.12041,-6.6793052 1.48421,-1.979033 3.35724,-3.357301 5.6191,-4.134808 0.42399,-2.049709 0.63604,-4.099441 0.63612,-6.149201 m -0.74214,6.467264 c -2.1205,0.848186 -3.85217,2.226454 -5.19502,4.134807 -1.34301,1.908389 -2.01447,4.028801 -2.01439,6.3612432 -8e-5,0.8481765 0.0706,1.6963413 0.21204,2.5444972 3.53394,-3.7460525 5.8664,-8.0928974 6.99737,-13.0405474 m -21.52221,-3.922767 -8.26961,-20.674039 -7.42145,20.674039 15.69106,0 m -9.01176,-27.035282 c -0.14141,5.3e-5 -0.24743,5.3e-5 -0.31806,0 -2.33251,5.3e-5 -4.06418,-0.989473 -5.19502,-2.96858 -6.00788,1.767066 -10.92017,5.195066 -14.73687,10.284009 -3.81678,5.018355 -5.72515,10.743468 -5.72512,17.175356 -3e-5,1.767039 0.17667,3.534049 0.5301,5.301036 2.75651,0.353425 5.08896,1.625672 6.99737,3.816745 1.90833,2.120432 2.86252,4.629586 2.86256,7.5274711 -4e-5,0.4947747 -0.0354,0.9895375 -0.10602,1.48429 L 510.1484,-44.002357 c 0.21199,-0.706756 0.56539,-1.696282 1.06021,-2.96858 0.21198,-1.060156 0.10596,-1.943661 -0.31806,-2.650517 0.35334,-0.141308 0.63607,-0.247329 0.84816,-0.318063 l 0,0.106021 m 15.26698,47.4972799 c -7e-5,-0.5654377 -0.0354,-1.0602005 -0.10602,-1.48429 -0.63619,-2.5444876 -2.26184,-3.8167348 -4.87695,-3.8167457 -1.41367,1.09e-5 -2.61524,0.4947737 -3.6047,1.48429 -0.98959,0.989535 -1.48435,2.1557617 -1.48429,3.4986836 -6e-5,2.96858284 1.44888,4.6649126 4.34685,5.0889943 1.34286,-0.3534013 2.68579,-0.7774838 4.02878,-1.2722486 0.28266,-0.21203922 0.53004,-0.45942063 0.74215,-0.74214501 0.63605,-0.84816211 0.95411,-1.76700739 0.95418,-2.75653859 m -0.42408,-3.1806214 c -0.0707,-0.070672 -1.62572,-4.5588775 -4.66491,-13.4646305 l -18.12954,0 c -1.20162,2.968599 -2.72124,7.492145 -4.55889,13.5706512 0.98948,-2.1204035 2.61513,-3.1806096 4.87695,-3.1806214 1.55492,1.18e-5 2.82717,0.5301148 3.81675,1.5903107 1.06015,1.0602163 1.59025,2.3324636 1.59031,3.8167457 -6e-5,2.61518137 -1.23696,4.3115111 -3.71073,5.0889943 2.75649,0.9188465 5.61904,1.3782692 8.58768,1.3782693 2.04967,-1e-7 4.09941,-0.2120414 6.1492,-0.6361243 -2.61524,-0.7774839 -3.92283,-2.54449408 -3.92277,-5.3010357 -6e-5,-1.4842827 0.49471,-2.7211898 1.48429,-3.710725 1.06015,-1.0601965 2.36774,-1.5902996 3.92277,-1.5903107 1.97899,1.11e-5 3.49862,0.8128358 4.55889,2.4384764 m -17.3874,2.3324557 c -5e-5,-1.4136017 -0.49481,-2.6151686 -1.48429,-3.6047043 -0.98957,-0.9895157 -2.19114,-1.4842785 -3.6047,-1.4842899 -1.34297,1.14e-5 -2.5092,0.4947742 -3.49868,1.4842899 -0.98957,0.9895357 -1.48434,2.1911026 -1.48429,3.6047043 -5e-5,0.8481712 0.17666,1.6256557 0.5301,2.33245572 1.76697,1.06021011 3.64,1.94371518 5.6191,2.65051788 2.61512,-0.6361223 3.92271,-2.29711182 3.92276,-4.9829736 M 495.8356,-8.6974589 c -3e-5,-2.7565241 -0.91888,-5.1596581 -2.75653,-7.2094081 -1.83773,-2.120394 -4.0995,-3.392641 -6.78533,-3.816746 1.20154,6.007857 4.06409,11.1321866 8.58768,15.3730034 0.63608,-1.4136006 0.95415,-2.8625489 0.95418,-4.3468493 m 8.6937,10.6020714 c -1.55501,-0.565442 -3.0393,-1.27224604 -4.45287,-2.12041429 0.98949,1.41361149 2.33241,2.12041559 4.02879,2.12041429 0.21199,1.3e-6 0.35335,1.3e-6 0.42408,0 m -5.40705,-3.0746007 -0.10602,-0.2120414 0.10602,0.2120414 0,0 m 13.04054,-54.3886258 -0.63612,0 0,0.530103 -0.31806,0 0,-0.530103 -0.53011,0 0,-0.318063 0.53011,0 0,-0.636124 0.31806,0 0,0.636124 0.63612,0 0,0.318063 m 10.39003,53.1163772 -0.5301,0 0,0.5301036 -0.31806,0 0,-0.5301036 -0.5301,0 0,-0.3180621 0.5301,0 0,-0.5301036 0.31806,0 0,0.5301036 0.5301,0 0,0.3180621 m -17.9175,-0.6361243 -0.5301,0 0,0.5301036 -0.31806,0 0,-0.5301036 -0.53011,0 0,-0.3180621 0.53011,0 0,-0.6361243 0.31806,0 0,0.6361243 0.5301,0 0,0.3180621"
         style=""
         id="path2875" />
    </g>
    <g
       style="font-size:96px;font-style:normal;font-variant:normal;font-weight:normal;font-stretch:normal;text-align:start;line-height:125%;writing-mode:lr-tb;text-anchor:start;fill:#000000;fill-opacity:1;stroke:none;font-family:TheRoots;-inkscape-font-specification:TheRoots"
       id="text2846">
      <path
         d="m 651.67073,-18.726972 c -1e-4,5.888015 -2.11209,10.9440097 -6.336,15.1679996 -4.16009,4.16000168 -9.18408,6.2399996 -15.072,6.24 -1.02407,-4e-7 -2.04807,-0.064 -3.072,-0.192 l -0.192,1.536 c -6.65606,-0.3840014 -10.27206,-0.6080011 -10.848,-0.672 -4.22406,-0.6400004 -7.45605,-2.047999 -9.696,-4.22400001 -3.96805,2.36800081 -8.25604,3.74399941 -12.864,4.12800001 -0.064,0.063999 -0.54404,0.095999 -1.44,0.096 -0.12804,-1.1e-6 -0.38404,-1.1e-6 -0.768,0 -0.12804,-1.1e-6 -0.28803,-1.1e-6 -0.48,0 -0.12803,-1.1e-6 -0.25603,-1.1e-6 -0.384,0 l -27.072,0 0,-1.344 c 2.04799,-0.3199994 3.71199,-0.6719991 4.992,-1.05600001 -0.32001,0.0640013 -0.64001,0.0960012 -0.96,0.096 -1.66401,1.2e-6 -3.10401,-0.60799816 -4.32,-1.82400001 -1.15201,-1.21599569 -1.72801,-2.65599429 -1.728,-4.31999999 -1e-5,-1.4719911 0.44799,-2.7519899 1.344,-3.84 0.95999,-1.1519876 2.11199,-1.8559866 3.456,-2.1119996 -2.62401,-4.543983 -3.93601,-9.439978 -3.936,-14.688 -10e-6,-5.439967 1.43999,-10.495962 4.32,-15.168 -1.47201,-0.191957 -2.72001,-0.863956 -3.744,-2.016 -0.96001,-1.151954 -1.44001,-2.495953 -1.44,-4.032 -1e-5,-1.59995 0.51199,-2.975948 1.536,-4.128 1.08799,-1.151946 2.43199,-1.791945 4.032,-1.92 -0.83201,-0.127945 -1.85601,-0.255945 -3.072,-0.384 l 0,-1.344 21.024,-0.48 c 3.07197,-0.127943 6.52796,0.128057 10.368,0.768 5.18396,0.768056 9.82395,2.752054 13.92,5.952 4.09594,3.200047 7.10394,7.168043 9.024,11.904 3.64793,-2.431959 7.64793,-3.647958 12,-3.648 5.88792,4.2e-5 10.91191,2.11204 15.072,6.336 4.22391,4.160032 6.3359,9.216027 6.336,15.168 m -0.384,0 c -1e-4,-5.823974 -2.04809,-10.783969 -6.144,-14.88 -4.09608,-4.15996 -9.05608,-6.239958 -14.88,-6.24 -4.35207,4.2e-5 -8.28807,1.216041 -11.808,3.648 1.27994,3.328035 1.91994,6.816031 1.92,10.464 -6e-5,7.36002 -2.43206,13.792014 -7.296,19.2959996 4.22394,5.88800284 9.95193,8.8319999 17.184,8.832 5.82392,-10e-8 10.78392,-2.04799806 14.88,-6.144 4.09591,-4.1599898 6.1439,-9.1519846 6.144,-14.9759996 m -33.312,-17.664 c -3.32806,-8.255953 -9.21605,-13.759948 -17.664,-16.512 5.37595,2.304052 8.06395,6.176049 8.064,11.616 -5e-5,6.272037 -3.48805,10.944032 -10.464,14.016 l 0.192,0.672 c 2.94396,5.056023 5.11995,8.60802 6.528,10.656 2.55995,3.904014 5.11995,7.1680107 7.68,9.7919996 l 0.288,-0.384 c -2.56005,-3.6479876 -3.84005,-7.7119836 -3.84,-12.1919996 -5e-5,-7.487972 3.07194,-13.375966 9.216,-17.664 m 2.016,10.656 c -6e-5,-3.519969 -0.64006,-6.943965 -1.92,-10.272 -5.95206,4.224034 -8.92805,9.984028 -8.928,17.28 -5e-5,4.352016 1.24795,8.320012 3.744,11.9039996 4.73594,-5.3759856 7.10394,-11.6799796 7.104,-18.9119996 m -20.64,-13.632 c -4e-5,-4.671954 -1.82404,-8.25595 -5.472,-10.752 -3.20003,-2.175946 -7.26403,-3.263945 -12.192,-3.264 l 0,27.264 c 4.67197,2.8e-5 8.67197,-1.055971 12,-3.168 3.77596,-2.367966 5.66396,-5.727963 5.664,-10.08 m 15.168,35.2319996 c -0.57606,-0.6399929 -1.15206,-1.3119923 -1.728,-2.016 l -0.192,0.192 c 0.63994,0.6400076 1.27994,1.248007 1.92,1.824 m -41.28,-42.8159996 c -2e-5,-0.319951 -0.032,-0.639951 -0.096,-0.96 -2.30401,1.920048 -4.28801,4.160046 -5.952,6.72 l 0.288,0 c 1.59999,4.3e-5 2.94399,-0.543956 4.032,-1.632 1.15198,-1.151954 1.72798,-2.527953 1.728,-4.128 m -0.192,-1.344 c -0.70402,-2.943947 -2.56001,-4.415945 -5.568,-4.416 -1.53601,5.5e-5 -2.88001,0.576054 -4.032,1.728 -1.08801,1.088052 -1.63201,2.43205 -1.632,4.032 -1e-5,1.472047 0.47999,2.752046 1.44,3.84 0.95999,1.088044 2.14399,1.696043 3.552,1.824 1.72799,-2.687954 3.80799,-5.023952 6.24,-7.008 m 33.12,47.1359996 -0.096,-0.096 c -4.67205,-4.7359917 -8.64004,-10.4639856 -11.904,-17.1839996 -1.08804,-2.175978 -2.20804,-3.647976 -3.36,-4.416 -1.15203,-0.767974 -2.88003,-1.215974 -5.184,-1.344 -0.83203,-0.06397 -2.14403,-0.191974 -3.936,-0.384 l 0,13.728 c -3e-5,1.728011 -3e-5,3.0080097 0,3.8399996 0.83197,-3.0079876 2.78397,-4.5119866 5.856,-4.5119996 1.72797,1.3e-5 3.16797,0.608013 4.32,1.8239996 1.21596,1.2160108 1.82396,2.6560093 1.824,4.32 -4e-5,1.664006 -0.60804,3.1040046 -1.824,4.32 -1.15203,1.1520022 -2.59203,1.72800162 -4.32,1.72799999 -0.12803,1.63e-6 -0.25603,1.63e-6 -0.384,0 1.40797,0.44800121 3.55197,0.89600071 6.432,1.34400001 l 0,0.864 c 4.47996,-0.3840002 8.67195,-1.7279989 12.576,-4.032 m -32.256,-9.6959996 0,-26.688 c -2e-5,-4.287956 -0.096,-7.199953 -0.288,-8.736 -0.19202,1.536047 -0.86402,2.848045 -2.016,3.936 -1.15201,1.024043 -2.52801,1.536043 -4.128,1.536 -0.12801,4.3e-5 -0.28801,-0.03196 -0.48,-0.096 -2.88001,4.672038 -4.32001,9.728033 -4.32,15.168 -10e-6,5.248022 1.31199,10.112018 3.936,14.592 0.31999,-0.06399 0.60799,-0.09599 0.864,-0.096 1.66399,1.3e-5 3.07199,0.576013 4.224,1.7279996 1.21598,1.1520106 1.85598,2.5280093 1.92,4.128 0.19198,-1.2799911 0.28798,-3.1039892 0.288,-5.4719996 m 19.392,5.4719996 c -4e-5,-1.5999907 -0.57604,-2.9439894 -1.728,-4.032 -1.08803,-1.1519876 -2.43203,-1.7279866 -4.032,-1.7279996 -1.53603,1.3e-5 -2.88003,0.576012 -4.032,1.7279996 -1.15203,1.0880106 -1.69603,2.4320093 -1.632,4.032 l 0,0.288 c 0.12797,0.8320065 0.25597,1.4720059 0.384,1.92 0.95997,2.36800309 2.71997,3.55200191 5.28,3.55199999 1.59997,1.92e-6 2.94397,-0.54399754 4.032,-1.63199999 1.15196,-1.1519953 1.72796,-2.5279939 1.728,-4.128 m -20.064,0.288 c -2e-5,-1.599991 -0.57602,-2.9439897 -1.728,-4.032 -1.08801,-1.1519876 -2.43201,-1.7279866 -4.032,-1.7279996 -0.19201,1.3e-5 -0.38401,0.03201 -0.576,0.096 1.66399,2.68801 3.71199,5.0560076 6.144,7.1039996 0.12798,-0.4479936 0.19198,-0.9279931 0.192,-1.44 m -0.288,1.824 c -2.56001,-2.1119923 -4.70401,-4.6079898 -6.432,-7.4879996 -1.40801,0.256012 -2.56001,0.9280117 -3.456,2.0159996 -0.83201,1.02401 -1.24801,2.2400088 -1.248,3.648 -1e-5,1.6000058 0.54399,2.9760044 1.632,4.12799999 1.15199,1.08800217 2.49599,1.63200163 4.032,1.632 2.75199,1.63e-6 4.57598,-1.31199706 5.472,-3.93599999 m 58.08,-15.2639996 -0.576,0 0,0.48 -0.384,0 0,-0.48 -0.48,0 0,-0.384 0.48,0 0,-0.576 0.384,0 0,0.576 0.576,0 0,0.384 m -37.536,-20.16 -0.576,0 0,0.576 -0.384,0 0,-0.576 -0.48,0 0,-0.288 0.48,0 0,-0.576 0.384,0 0,0.576 0.576,0 0,0.288 m -3.072,0 -0.48,0 0,0.576 -0.384,0 0,-0.576 -0.576,0 0,-0.288 0.576,0 0,-0.576 0.384,0 0,0.576 0.48,0 0,0.288 m -22.176,-8.064 -0.48,0 0,0.48 -0.384,0 0,-0.48 -0.576,0 0,-0.384 0.576,0 0,-0.576 0.384,0 0,0.576 0.48,0 0,0.384 m 20.16,41.5679996 -0.576,0 0,0.48 -0.384,0 0,-0.48 -0.576,0 0,-0.384 0.576,0 0,-0.576 0.384,0 0,0.576 0.576,0 0,0.384 m -19.968,0.192 -0.576,0 0,0.48 -0.384,0 0,-0.48 -0.576,0 0,-0.384 0.576,0 0,-0.576 0.384,0 0,0.576 0.576,0 0,0.384"
         style=""
         id="path2872" />
    </g>
  </g>
</svg>
