<?xml version="1.0" encoding="UTF-8" standalone="no"?>
<!-- Created with Inkscape (http://www.inkscape.org/) -->

<svg
   xmlns:dc="http://purl.org/dc/elements/1.1/"
   xmlns:cc="http://creativecommons.org/ns#"
   xmlns:rdf="http://www.w3.org/1999/02/22-rdf-syntax-ns#"
   xmlns:svg="http://www.w3.org/2000/svg"
   xmlns="http://www.w3.org/2000/svg"
   xmlns:sodipodi="http://sodipodi.sourceforge.net/DTD/sodipodi-0.dtd"
   xmlns:inkscape="http://www.inkscape.org/namespaces/inkscape"
   width="744.09448819"
   height="1052.3622047"
   id="svg2"
   version="1.1"
   inkscape:version="0.47pre3 r22311"
   sodipodi:docname="New document 1">
  <defs
     id="defs4">
    <marker
       inkscape:stockid="DotS"
       orient="auto"
       refY="0.0"
       refX="0.0"
       id="DotS"
       style="overflow:visible">
      <path
         id="path5174"
         d="M -2.5,-1.0 C -2.5,1.7600000 -4.7400000,4.0 -7.5,4.0 C -10.260000,4.0 -12.5,1.7600000 -12.5,-1.0 C -12.5,-3.7600000 -10.260000,-6.0 -7.5,-6.0 C -4.7400000,-6.0 -2.5,-3.7600000 -2.5,-1.0 z "
         style="fill-rule:evenodd;stroke:#000000;stroke-width:1.0pt;marker-start:none;marker-end:none"
         transform="scale(0.2) translate(7.4, 1)" />
    </marker>
    <marker
       inkscape:stockid="Arrow2Mend"
       orient="auto"
       refY="0.0"
       refX="0.0"
       id="Arrow2Mend"
       style="overflow:visible;">
      <path
         id="path5133"
         style="font-size:12.0;fill-rule:evenodd;stroke-width:0.62500000;stroke-linejoin:round;"
         d="M 8.7185878,4.0337352 L -2.2072895,0.016013256 L 8.7185884,-4.0017078 C 6.9730900,-1.6296469 6.9831476,1.6157441 8.7185878,4.0337352 z "
         transform="scale(0.6) rotate(180) translate(0,0)" />
    </marker>
    <marker
       inkscape:stockid="Arrow1Lend"
       orient="auto"
       refY="0.0"
       refX="0.0"
       id="Arrow1Lend"
       style="overflow:visible;">
      <path
         id="path5109"
         d="M 0.0,0.0 L 5.0,-5.0 L -12.5,0.0 L 5.0,5.0 L 0.0,0.0 z "
         style="fill-rule:evenodd;stroke:#000000;stroke-width:1.0pt;marker-start:none;"
         transform="scale(0.8) rotate(180) translate(12.5,0)" />
    </marker>
    <marker
       inkscape:stockid="Arrow2Lend"
       orient="auto"
       refY="0.0"
       refX="0.0"
       id="Arrow2Lend"
       style="overflow:visible;">
      <path
         id="path5127"
         style="font-size:12.0;fill-rule:evenodd;stroke-width:0.62500000;stroke-linejoin:round;"
         d="M 8.7185878,4.0337352 L -2.2072895,0.016013256 L 8.7185884,-4.0017078 C 6.9730900,-1.6296469 6.9831476,1.6157441 8.7185878,4.0337352 z "
         transform="scale(1.1) rotate(180) translate(1,0)" />
    </marker>
    <marker
       inkscape:stockid="DotM"
       orient="auto"
       refY="0.0"
       refX="0.0"
       id="DotM"
       style="overflow:visible">
      <path
         id="path5171"
         d="M -2.5,-1.0 C -2.5,1.7600000 -4.7400000,4.0 -7.5,4.0 C -10.260000,4.0 -12.5,1.7600000 -12.5,-1.0 C -12.5,-3.7600000 -10.260000,-6.0 -7.5,-6.0 C -4.7400000,-6.0 -2.5,-3.7600000 -2.5,-1.0 z "
         style="fill-rule:evenodd;stroke:#000000;stroke-width:1.0pt;marker-start:none;marker-end:none"
         transform="scale(0.4) translate(7.4, 1)" />
    </marker>
    <inkscape:perspective
       sodipodi:type="inkscape:persp3d"
       inkscape:vp_x="0 : 526.18109 : 1"
       inkscape:vp_y="0 : 1000 : 0"
       inkscape:vp_z="744.09448 : 526.18109 : 1"
       inkscape:persp3d-origin="372.04724 : 350.78739 : 1"
       id="perspective10" />
  </defs>
  <sodipodi:namedview
     id="base"
     pagecolor="#ffffff"
     bordercolor="#666666"
     borderopacity="1.0"
     inkscape:pageopacity="0.0"
     inkscape:pageshadow="2"
     inkscape:zoom="1.4142136"
     inkscape:cx="189"
     inkscape:cy="746.69795"
     inkscape:document-units="px"
     inkscape:current-layer="layer1"
     showgrid="false"
     inkscape:window-width="1293"
     inkscape:window-height="1024"
     inkscape:window-x="155"
     inkscape:window-y="7"
     inkscape:window-maximized="0" />
  <metadata
     id="metadata7">
    <rdf:RDF>
      <cc:Work
         rdf:about="">
        <dc:format>image/svg+xml</dc:format>
        <dc:type
           rdf:resource="http://purl.org/dc/dcmitype/StillImage" />
        <dc:title></dc:title>
      </cc:Work>
    </rdf:RDF>
  </metadata>
  <g
     inkscape:label="Layer 1"
     inkscape:groupmode="layer"
     id="layer1">
    <text
       xml:space="preserve"
       style="font-size:18px;font-style:normal;font-variant:normal;font-weight:normal;font-stretch:normal;text-align:center;line-height:100%;writing-mode:lr-tb;text-anchor:middle;fill:#000000;fill-opacity:1;stroke:none;font-family:Geneva CY;-inkscape-font-specification:Geneva CY"
       x="166.26945"
       y="244.98195"
       id="text6319"
       sodipodi:linespacing="100%"><tspan
         sodipodi:role="line"
         id="tspan6321"
         x="166.26945"
         y="244.98195">Translate</tspan></text>
    <text
       sodipodi:linespacing="100%"
       id="text6329"
       y="244.98195"
       x="330.99042"
       style="font-size:18px;font-style:normal;font-variant:normal;font-weight:normal;font-stretch:normal;text-align:center;line-height:100%;writing-mode:lr-tb;text-anchor:middle;fill:#000000;fill-opacity:1;stroke:none;font-family:Geneva CY;-inkscape-font-specification:Geneva CY"
       xml:space="preserve"><tspan
         y="244.98195"
         x="330.99042"
         id="tspan6331"
         sodipodi:role="line">Rotate</tspan><tspan
         y="262.98193"
         x="330.99042"
         sodipodi:role="line"
         id="tspan6335" /></text>
    <g
       id="g6392"
       transform="translate(-1.3749795,6.1920833)">
      <path
         sodipodi:type="star"
         style="opacity:0.71681417;fill:#00ff00;fill-opacity:1;stroke:none"
         id="path6323"
         sodipodi:sides="5"
         sodipodi:cx="174"
         sodipodi:cy="422.36218"
         sodipodi:r1="53.254108"
         sodipodi:r2="26.627054"
         sodipodi:arg1="0.52359878"
         sodipodi:arg2="1.1519173"
         inkscape:flatsided="false"
         inkscape:rounded="0"
         inkscape:randomized="0"
         d="m 220.11941,448.98924 -35.28921,-2.30203 -21.90235,27.76535 -8.71561,-34.2734 -33.17462,-12.25041 29.90267,-18.88009 1.39931,-35.33653 27.19648,22.60486 34.03944,-9.58876 -13.09433,32.85067 19.63822,29.41034 z"
         transform="matrix(0.6,0,0,0.6,213.91672,-84.297583)" />
      <path
         transform="matrix(0.51961523,-0.3,0.3,0.51961523,120.66708,14.195072)"
         d="m 220.11941,448.98924 -35.28921,-2.30203 -21.90235,27.76535 -8.71561,-34.2734 -33.17462,-12.25041 29.90267,-18.88009 1.39931,-35.33653 27.19648,22.60486 34.03944,-9.58876 -13.09433,32.85067 19.63822,29.41034 z"
         inkscape:randomized="0"
         inkscape:rounded="0"
         inkscape:flatsided="false"
         sodipodi:arg2="1.1519173"
         sodipodi:arg1="0.52359878"
         sodipodi:r2="26.627054"
         sodipodi:r1="53.254108"
         sodipodi:cy="422.36218"
         sodipodi:cx="174"
         sodipodi:sides="5"
         id="path6333"
         style="opacity:0.71681417;fill:#0000ff;fill-opacity:1;stroke:none"
         sodipodi:type="star" />
      <path
         style="fill:none;stroke:#000000;stroke-width:3;stroke-linecap:butt;stroke-linejoin:miter;stroke-miterlimit:4;stroke-opacity:1;stroke-dasharray:none;marker-start:url(#DotS);marker-end:url(#Arrow2Mend)"
         d="m 327.24979,126.94587 c 28.90271,0.43063 34.45091,8.21576 49,29"
         id="path6327"
         sodipodi:nodetypes="cc" />
    </g>
    <text
       sodipodi:linespacing="100%"
       id="text6343"
       y="396.26883"
       x="165.92668"
       style="font-size:18px;font-style:normal;font-variant:normal;font-weight:normal;font-stretch:normal;text-align:center;line-height:100%;writing-mode:lr-tb;text-anchor:middle;fill:#000000;fill-opacity:1;stroke:none;font-family:Geneva CY;-inkscape-font-specification:Geneva CY"
       xml:space="preserve"><tspan
         y="396.26883"
         x="165.92668"
         sodipodi:role="line"
         id="tspan6347">Scale</tspan></text>
    <text
       sodipodi:linespacing="100%"
       id="text6357"
       y="396.26883"
       x="330.7663"
       style="font-size:18px;font-style:normal;font-variant:normal;font-weight:normal;font-stretch:normal;text-align:center;line-height:100%;writing-mode:lr-tb;text-anchor:middle;fill:#000000;fill-opacity:1;stroke:none;font-family:Geneva CY;-inkscape-font-specification:Geneva CY"
       xml:space="preserve"><tspan
         y="396.26883"
         x="330.7663"
         sodipodi:role="line"
         id="tspan6361">Shear</tspan></text>
    <g
       id="g6387"
       transform="translate(0,-2.422329)">
      <path
         transform="matrix(0.54998407,0.2398281,-0.2398281,0.54998407,151.10942,-88.200555)"
         d="m 220.11941,448.98924 -35.28921,-2.30203 -21.90235,27.76535 -8.71561,-34.2734 -33.17462,-12.25041 29.90267,-18.88009 1.39931,-35.33653 27.19648,22.60486 34.03944,-9.58876 -13.09433,32.85067 19.63822,29.41034 z"
         inkscape:randomized="0"
         inkscape:rounded="0"
         inkscape:flatsided="false"
         sodipodi:arg2="1.1519173"
         sodipodi:arg1="0.52359878"
         sodipodi:r2="26.627054"
         sodipodi:r1="53.254108"
         sodipodi:cy="422.36218"
         sodipodi:cx="174"
         sodipodi:sides="5"
         id="path2816"
         style="opacity:0.71681417;fill:#00ff00;fill-opacity:1;stroke:none"
         sodipodi:type="star" />
      <path
         sodipodi:type="star"
         style="opacity:0.71681417;fill:#0000ff;fill-opacity:1;stroke:none"
         id="path6367"
         sodipodi:sides="5"
         sodipodi:cx="174"
         sodipodi:cy="422.36218"
         sodipodi:r1="53.254108"
         sodipodi:r2="26.627054"
         sodipodi:arg1="0.52359878"
         sodipodi:arg2="1.1519173"
         inkscape:flatsided="false"
         inkscape:rounded="0"
         inkscape:randomized="0"
         d="m 220.11941,448.98924 -35.28921,-2.30203 -21.90235,27.76535 -8.71561,-34.2734 -33.17462,-12.25041 29.90267,-18.88009 1.39931,-35.33653 27.19648,22.60486 34.03944,-9.58876 -13.09433,32.85067 19.63822,29.41034 z"
         transform="matrix(0.54998407,0.2398281,-0.2398281,0.54998407,188.58608,-113.65641)" />
      <path
         sodipodi:nodetypes="cc"
         id="path5101"
         d="m 167.48528,220.82665 46,-29"
         style="fill:none;stroke:#000000;stroke-width:3;stroke-linecap:butt;stroke-linejoin:miter;stroke-miterlimit:4;stroke-opacity:1;stroke-dasharray:none;marker-start:url(#DotS);marker-end:url(#Arrow2Mend)" />
    </g>
    <g
       id="g6397"
       transform="translate(-1.7948006,-1.3537125)">
      <path
         sodipodi:type="star"
         style="opacity:0.71681417;fill:#00ff00;fill-opacity:1;stroke:none"
         id="path6369"
         sodipodi:sides="5"
         sodipodi:cx="174"
         sodipodi:cy="422.36218"
         sodipodi:r1="53.254108"
         sodipodi:r2="26.627054"
         sodipodi:arg1="0.52359878"
         sodipodi:arg2="1.1519173"
         inkscape:flatsided="false"
         inkscape:rounded="0"
         inkscape:randomized="0"
         d="m 220.11941,448.98924 -35.28921,-2.30203 -21.90235,27.76535 -8.71561,-34.2734 -33.17462,-12.25041 29.90267,-18.88009 1.39931,-35.33653 27.19648,22.60486 34.03944,-9.58876 -13.09433,32.85067 19.63822,29.41034 z"
         transform="matrix(0.54998407,0.2398281,-0.2398281,0.54998407,164.54445,63.241289)" />
      <path
         transform="matrix(0.6874801,0.11991405,-0.29978513,0.27499204,176.0919,213.2493)"
         d="m 220.11941,448.98924 -35.28921,-2.30203 -21.90235,27.76535 -8.71561,-34.2734 -33.17462,-12.25041 29.90267,-18.88009 1.39931,-35.33653 27.19648,22.60486 34.03944,-9.58876 -13.09433,32.85067 19.63822,29.41034 z"
         inkscape:randomized="0"
         inkscape:rounded="0"
         inkscape:flatsided="false"
         sodipodi:arg2="1.1519173"
         sodipodi:arg1="0.52359878"
         sodipodi:r2="26.627054"
         sodipodi:r1="53.254108"
         sodipodi:cy="422.36218"
         sodipodi:cx="174"
         sodipodi:sides="5"
         id="path6373"
         style="opacity:0.71681417;fill:#0000ff;fill-opacity:1;stroke:none"
         sodipodi:type="star" />
    </g>
    <g
       id="g6401"
       transform="translate(2.86592,1.3537125)">
      <path
         transform="matrix(0.54998407,0.2398281,-0.2398281,0.54998407,319.84991,60.533864)"
         d="m 220.11941,448.98924 -35.28921,-2.30203 -21.90235,27.76535 -8.71561,-34.2734 -33.17462,-12.25041 29.90267,-18.88009 1.39931,-35.33653 27.19648,22.60486 34.03944,-9.58876 -13.09433,32.85067 19.63822,29.41034 z"
         inkscape:randomized="0"
         inkscape:rounded="0"
         inkscape:flatsided="false"
         sodipodi:arg2="1.1519173"
         sodipodi:arg1="0.52359878"
         sodipodi:r2="26.627054"
         sodipodi:r1="53.254108"
         sodipodi:cy="422.36218"
         sodipodi:cx="174"
         sodipodi:sides="5"
         id="path6375"
         style="opacity:0.71681417;fill:#00ff00;fill-opacity:1;stroke:none"
         sodipodi:type="star" />
      <path
         sodipodi:type="star"
         style="opacity:0.71681417;fill:#0000ff;fill-opacity:1;stroke:none"
         id="path6379"
         sodipodi:sides="5"
         sodipodi:cx="174"
         sodipodi:cy="422.36218"
         sodipodi:r1="53.254108"
         sodipodi:r2="26.627054"
         sodipodi:arg1="0.52359878"
         sodipodi:arg2="1.1519173"
         inkscape:flatsided="false"
         inkscape:rounded="0"
         inkscape:randomized="0"
         d="m 220.11941,448.98924 -35.28921,-2.30203 -21.90235,27.76535 -8.71561,-34.2734 -33.17462,-12.25041 29.90267,-18.88009 1.39931,-35.33653 27.19648,22.60486 34.03944,-9.58876 -13.09433,32.85067 19.63822,29.41034 z"
         transform="matrix(0.31015742,0.2398281,-0.78980888,0.54998407,612.01937,60.533864)" />
    </g>
  </g>
</svg>
